<mxfile host="app.diagrams.net" modified="2021-06-15T08:48:28.567Z" agent="5.0 (Macintosh; Intel Mac OS X 10_15_6) AppleWebKit/605.1.15 (KHTML, like Gecko) Version/14.0.3 Safari/605.1.15" etag="7rIhA4BshK8sGbNJqSZd" version="14.7.8" type="github" pages="2">
  <diagram id="00v8cj8Fdp33nUqMAuFc" name="Page-1">
    <mxGraphModel dx="705" dy="645" grid="1" gridSize="10" guides="1" tooltips="1" connect="1" arrows="1" fold="1" page="1" pageScale="1" pageWidth="850" pageHeight="1100" math="0" shadow="0">
      <root>
        <mxCell id="bQ8GBniSP3E1jsAZ1YBF-0" />
        <mxCell id="bQ8GBniSP3E1jsAZ1YBF-1" parent="bQ8GBniSP3E1jsAZ1YBF-0" />
      </root>
    </mxGraphModel>
  </diagram>
  <diagram id="GfeuRMPr9Bc08lo4q1Z1" name="Onboarding Quest Action">
    <mxGraphModel dx="705" dy="645" grid="1" gridSize="10" guides="1" tooltips="1" connect="1" arrows="1" fold="1" page="1" pageScale="1" pageWidth="850" pageHeight="1100" math="0" shadow="0">
      <root>
        <mxCell id="oKqIJiOsQRa1msyX4qbT-0" />
        <mxCell id="oKqIJiOsQRa1msyX4qbT-1" parent="oKqIJiOsQRa1msyX4qbT-0" />
        <mxCell id="oKqIJiOsQRa1msyX4qbT-16" value="" style="edgeStyle=orthogonalEdgeStyle;rounded=0;orthogonalLoop=1;jettySize=auto;html=1;" edge="1" parent="oKqIJiOsQRa1msyX4qbT-1" source="oKqIJiOsQRa1msyX4qbT-4" target="oKqIJiOsQRa1msyX4qbT-6">
          <mxGeometry relative="1" as="geometry" />
        </mxCell>
        <mxCell id="oKqIJiOsQRa1msyX4qbT-4" value="" style="ellipse;fillColor=#000000;strokeColor=none;" vertex="1" parent="oKqIJiOsQRa1msyX4qbT-1">
          <mxGeometry x="400" y="110" width="30" height="30" as="geometry" />
        </mxCell>
        <mxCell id="oKqIJiOsQRa1msyX4qbT-5" value="" style="ellipse;html=1;shape=endState;fillColor=#000000;strokeColor=#000000;" vertex="1" parent="oKqIJiOsQRa1msyX4qbT-1">
          <mxGeometry x="400" y="1070" width="30" height="30" as="geometry" />
        </mxCell>
        <mxCell id="oKqIJiOsQRa1msyX4qbT-6" value="사용자가 미션을 달성할 수 있는 액션을 수행했고 서버에도 전달되어 성공 응답을 받았다" style="html=1;align=center;verticalAlign=top;rounded=1;absoluteArcSize=1;arcSize=10;dashed=0;" vertex="1" parent="oKqIJiOsQRa1msyX4qbT-1">
          <mxGeometry x="180" y="170" width="470" height="40" as="geometry" />
        </mxCell>
        <mxCell id="oKqIJiOsQRa1msyX4qbT-17" value="오늘의 미션 정보를 레파지토리에게 요청한다" style="html=1;align=center;verticalAlign=top;rounded=1;absoluteArcSize=1;arcSize=10;dashed=0;" vertex="1" parent="oKqIJiOsQRa1msyX4qbT-1">
          <mxGeometry x="280" y="330" width="270" height="40" as="geometry" />
        </mxCell>
        <mxCell id="oKqIJiOsQRa1msyX4qbT-19" value="서버에 action 발생을 보고한다" style="html=1;align=center;verticalAlign=top;rounded=1;absoluteArcSize=1;arcSize=10;dashed=0;" vertex="1" parent="oKqIJiOsQRa1msyX4qbT-1">
          <mxGeometry x="180" y="770" width="170" height="40" as="geometry" />
        </mxCell>
        <mxCell id="oKqIJiOsQRa1msyX4qbT-20" value="" style="shape=rhombus;html=1;verticalLabelPosition=bottom;verticalAlignment=top;" vertex="1" parent="oKqIJiOsQRa1msyX4qbT-1">
          <mxGeometry x="395" y="250" width="40" height="40" as="geometry" />
        </mxCell>
        <mxCell id="oKqIJiOsQRa1msyX4qbT-21" value="" style="edgeStyle=elbowEdgeStyle;html=1;elbow=horizontal;align=right;verticalAlign=bottom;endArrow=none;rounded=0;labelBackgroundColor=none;startArrow=open;startSize=12;entryX=0.5;entryY=1;entryDx=0;entryDy=0;" edge="1" source="oKqIJiOsQRa1msyX4qbT-20" parent="oKqIJiOsQRa1msyX4qbT-1" target="oKqIJiOsQRa1msyX4qbT-6">
          <mxGeometry relative="1" as="geometry">
            <mxPoint x="534" y="200" as="targetPoint" />
          </mxGeometry>
        </mxCell>
        <mxCell id="oKqIJiOsQRa1msyX4qbT-22" value="미션 진행이 가능하지 않음" style="edgeStyle=elbowEdgeStyle;html=1;elbow=vertical;verticalAlign=bottom;endArrow=open;rounded=0;labelBackgroundColor=none;endSize=12;entryX=0.75;entryY=0;entryDx=0;entryDy=0;" edge="1" source="oKqIJiOsQRa1msyX4qbT-20" parent="oKqIJiOsQRa1msyX4qbT-1" target="oKqIJiOsQRa1msyX4qbT-18">
          <mxGeometry x="-0.7527" relative="1" as="geometry">
            <mxPoint x="620" y="760" as="targetPoint" />
            <Array as="points">
              <mxPoint x="580" y="270" />
            </Array>
            <mxPoint as="offset" />
          </mxGeometry>
        </mxCell>
        <mxCell id="oKqIJiOsQRa1msyX4qbT-23" value="" style="edgeStyle=elbowEdgeStyle;html=1;elbow=horizontal;verticalAlign=bottom;endArrow=open;rounded=0;labelBackgroundColor=none;endSize=12;entryX=0.5;entryY=0;entryDx=0;entryDy=0;" edge="1" source="oKqIJiOsQRa1msyX4qbT-20" parent="oKqIJiOsQRa1msyX4qbT-1" target="oKqIJiOsQRa1msyX4qbT-17">
          <mxGeometry relative="1" as="geometry">
            <mxPoint x="315" y="270" as="targetPoint" />
          </mxGeometry>
        </mxCell>
        <mxCell id="oKqIJiOsQRa1msyX4qbT-24" value="" style="shape=rhombus;html=1;verticalLabelPosition=bottom;verticalAlignment=top;" vertex="1" parent="oKqIJiOsQRa1msyX4qbT-1">
          <mxGeometry x="395" y="420" width="40" height="40" as="geometry" />
        </mxCell>
        <mxCell id="oKqIJiOsQRa1msyX4qbT-25" value="" style="edgeStyle=elbowEdgeStyle;html=1;elbow=horizontal;align=right;verticalAlign=bottom;endArrow=none;rounded=0;labelBackgroundColor=none;startArrow=open;startSize=12;entryX=0.5;entryY=1;entryDx=0;entryDy=0;" edge="1" source="oKqIJiOsQRa1msyX4qbT-24" parent="oKqIJiOsQRa1msyX4qbT-1" target="oKqIJiOsQRa1msyX4qbT-17">
          <mxGeometry relative="1" as="geometry">
            <mxPoint x="450" y="380" as="targetPoint" />
          </mxGeometry>
        </mxCell>
        <mxCell id="oKqIJiOsQRa1msyX4qbT-26" value="오늘의 미션 정보가 없음" style="edgeStyle=elbowEdgeStyle;html=1;elbow=vertical;verticalAlign=bottom;endArrow=open;rounded=0;labelBackgroundColor=none;endSize=12;exitX=1;exitY=0.5;exitDx=0;exitDy=0;" edge="1" source="oKqIJiOsQRa1msyX4qbT-24" parent="oKqIJiOsQRa1msyX4qbT-1">
          <mxGeometry x="-0.684" y="6" relative="1" as="geometry">
            <mxPoint x="602" y="770" as="targetPoint" />
            <mxPoint x="468" y="436" as="sourcePoint" />
            <Array as="points">
              <mxPoint x="540" y="440" />
            </Array>
            <mxPoint as="offset" />
          </mxGeometry>
        </mxCell>
        <mxCell id="oKqIJiOsQRa1msyX4qbT-28" value="" style="shape=rhombus;html=1;verticalLabelPosition=bottom;verticalAlignment=top;" vertex="1" parent="oKqIJiOsQRa1msyX4qbT-1">
          <mxGeometry x="395" y="510" width="40" height="40" as="geometry" />
        </mxCell>
        <mxCell id="oKqIJiOsQRa1msyX4qbT-29" value="" style="edgeStyle=elbowEdgeStyle;html=1;elbow=horizontal;align=right;verticalAlign=bottom;endArrow=none;rounded=0;labelBackgroundColor=none;startArrow=open;startSize=12;entryX=0.5;entryY=1;entryDx=0;entryDy=0;" edge="1" source="oKqIJiOsQRa1msyX4qbT-28" parent="oKqIJiOsQRa1msyX4qbT-1" target="oKqIJiOsQRa1msyX4qbT-24">
          <mxGeometry relative="1" as="geometry">
            <mxPoint x="415" y="470" as="targetPoint" />
          </mxGeometry>
        </mxCell>
        <mxCell id="oKqIJiOsQRa1msyX4qbT-30" value="오늘 미션의 &amp;nbsp;action이 아님" style="edgeStyle=elbowEdgeStyle;html=1;elbow=horizontal;verticalAlign=bottom;endArrow=open;rounded=0;labelBackgroundColor=none;endSize=12;startArrow=none;" edge="1" source="oKqIJiOsQRa1msyX4qbT-18" parent="oKqIJiOsQRa1msyX4qbT-1">
          <mxGeometry y="-144" relative="1" as="geometry">
            <mxPoint x="590" y="770" as="targetPoint" />
            <Array as="points">
              <mxPoint x="590" y="650" />
            </Array>
            <mxPoint x="64" y="-120" as="offset" />
          </mxGeometry>
        </mxCell>
        <mxCell id="oKqIJiOsQRa1msyX4qbT-32" value="" style="shape=rhombus;html=1;verticalLabelPosition=bottom;verticalAlignment=top;" vertex="1" parent="oKqIJiOsQRa1msyX4qbT-1">
          <mxGeometry x="395" y="600" width="40" height="40" as="geometry" />
        </mxCell>
        <mxCell id="oKqIJiOsQRa1msyX4qbT-33" value="" style="edgeStyle=elbowEdgeStyle;html=1;elbow=horizontal;align=right;verticalAlign=bottom;endArrow=none;rounded=0;labelBackgroundColor=none;startArrow=open;startSize=12;entryX=0.5;entryY=1;entryDx=0;entryDy=0;" edge="1" source="oKqIJiOsQRa1msyX4qbT-32" parent="oKqIJiOsQRa1msyX4qbT-1" target="oKqIJiOsQRa1msyX4qbT-28">
          <mxGeometry relative="1" as="geometry">
            <mxPoint x="415" y="560" as="targetPoint" />
          </mxGeometry>
        </mxCell>
        <mxCell id="oKqIJiOsQRa1msyX4qbT-34" value="오늘 미션을 달성했음" style="edgeStyle=elbowEdgeStyle;html=1;elbow=vertical;verticalAlign=bottom;endArrow=open;rounded=0;labelBackgroundColor=none;endSize=12;entryX=0.5;entryY=0;entryDx=0;entryDy=0;" edge="1" source="oKqIJiOsQRa1msyX4qbT-32" parent="oKqIJiOsQRa1msyX4qbT-1" target="oKqIJiOsQRa1msyX4qbT-18">
          <mxGeometry x="-0.4091" relative="1" as="geometry">
            <mxPoint x="640" y="620" as="targetPoint" />
            <Array as="points">
              <mxPoint x="510" y="620" />
              <mxPoint x="565" y="620" />
            </Array>
            <mxPoint as="offset" />
          </mxGeometry>
        </mxCell>
        <mxCell id="oKqIJiOsQRa1msyX4qbT-35" value="오늘 미션을 달성하지 못했음" style="edgeStyle=elbowEdgeStyle;html=1;elbow=vertical;verticalAlign=bottom;endArrow=open;rounded=0;labelBackgroundColor=none;endSize=12;entryX=0.5;entryY=0;entryDx=0;entryDy=0;" edge="1" source="oKqIJiOsQRa1msyX4qbT-32" parent="oKqIJiOsQRa1msyX4qbT-1" target="oKqIJiOsQRa1msyX4qbT-19">
          <mxGeometry x="-0.4643" relative="1" as="geometry">
            <mxPoint x="240" y="610" as="targetPoint" />
            <Array as="points">
              <mxPoint x="350" y="620" />
              <mxPoint x="350" y="610" />
            </Array>
            <mxPoint as="offset" />
          </mxGeometry>
        </mxCell>
        <mxCell id="oKqIJiOsQRa1msyX4qbT-36" value="1. 국가가 한국이 아님&lt;br&gt;2. 언어설정이 한국어가 아님&lt;br&gt;3. 비로그인 상태&amp;nbsp;" style="shape=note2;boundedLbl=1;whiteSpace=wrap;html=1;size=25;verticalAlign=top;align=left;spacingLeft=5;" vertex="1" parent="oKqIJiOsQRa1msyX4qbT-1">
          <mxGeometry x="650" y="240" width="190" height="90" as="geometry" />
        </mxCell>
        <mxCell id="oKqIJiOsQRa1msyX4qbT-37" value="미션 진행이 가능하지 않은 조건" style="resizeWidth=1;part=1;strokeColor=none;fillColor=none;align=left;spacingLeft=5;" vertex="1" parent="oKqIJiOsQRa1msyX4qbT-36">
          <mxGeometry width="190" height="25" relative="1" as="geometry" />
        </mxCell>
        <mxCell id="oKqIJiOsQRa1msyX4qbT-18" value="서버에 action 발생을 보고하지 않는다" style="html=1;align=center;verticalAlign=top;rounded=1;absoluteArcSize=1;arcSize=10;dashed=0;" vertex="1" parent="oKqIJiOsQRa1msyX4qbT-1">
          <mxGeometry x="490" y="770" width="190" height="40" as="geometry" />
        </mxCell>
        <mxCell id="oKqIJiOsQRa1msyX4qbT-38" value="" style="edgeStyle=elbowEdgeStyle;html=1;elbow=horizontal;verticalAlign=bottom;endArrow=none;rounded=0;labelBackgroundColor=none;endSize=12;" edge="1" parent="oKqIJiOsQRa1msyX4qbT-1" source="oKqIJiOsQRa1msyX4qbT-28" target="oKqIJiOsQRa1msyX4qbT-18">
          <mxGeometry x="-0.5738" y="10" relative="1" as="geometry">
            <mxPoint x="590" y="770" as="targetPoint" />
            <mxPoint x="435" y="530" as="sourcePoint" />
            <Array as="points">
              <mxPoint x="590" y="530" />
            </Array>
            <mxPoint as="offset" />
          </mxGeometry>
        </mxCell>
        <mxCell id="oKqIJiOsQRa1msyX4qbT-46" value="" style="edgeStyle=orthogonalEdgeStyle;rounded=0;orthogonalLoop=1;jettySize=auto;html=1;entryX=0.5;entryY=0;entryDx=0;entryDy=0;" edge="1" parent="oKqIJiOsQRa1msyX4qbT-1" source="oKqIJiOsQRa1msyX4qbT-41" target="oKqIJiOsQRa1msyX4qbT-55">
          <mxGeometry relative="1" as="geometry">
            <mxPoint x="110" y="950" as="targetPoint" />
            <Array as="points">
              <mxPoint x="110" y="870" />
            </Array>
          </mxGeometry>
        </mxCell>
        <mxCell id="oKqIJiOsQRa1msyX4qbT-47" value="statusCode = 403" style="edgeLabel;html=1;align=center;verticalAlign=middle;resizable=0;points=[];" vertex="1" connectable="0" parent="oKqIJiOsQRa1msyX4qbT-46">
          <mxGeometry x="-0.25" y="-4" relative="1" as="geometry">
            <mxPoint x="-1" y="14" as="offset" />
          </mxGeometry>
        </mxCell>
        <mxCell id="oKqIJiOsQRa1msyX4qbT-54" value="기타 에러" style="edgeStyle=orthogonalEdgeStyle;rounded=0;orthogonalLoop=1;jettySize=auto;html=1;entryX=0.607;entryY=-0.075;entryDx=0;entryDy=0;entryPerimeter=0;exitX=1;exitY=0.5;exitDx=0;exitDy=0;" edge="1" parent="oKqIJiOsQRa1msyX4qbT-1" source="oKqIJiOsQRa1msyX4qbT-41" target="oKqIJiOsQRa1msyX4qbT-48">
          <mxGeometry x="0.3737" y="-20" relative="1" as="geometry">
            <mxPoint x="285" y="880" as="sourcePoint" />
            <Array as="points">
              <mxPoint x="380" y="870" />
            </Array>
            <mxPoint as="offset" />
          </mxGeometry>
        </mxCell>
        <mxCell id="oKqIJiOsQRa1msyX4qbT-41" value="" style="shape=rhombus;html=1;verticalLabelPosition=bottom;verticalAlignment=top;" vertex="1" parent="oKqIJiOsQRa1msyX4qbT-1">
          <mxGeometry x="245" y="850" width="40" height="40" as="geometry" />
        </mxCell>
        <mxCell id="oKqIJiOsQRa1msyX4qbT-42" value="" style="edgeStyle=elbowEdgeStyle;html=1;elbow=horizontal;align=right;verticalAlign=bottom;endArrow=none;rounded=0;labelBackgroundColor=none;startArrow=open;startSize=12;" edge="1" source="oKqIJiOsQRa1msyX4qbT-41" parent="oKqIJiOsQRa1msyX4qbT-1">
          <mxGeometry relative="1" as="geometry">
            <mxPoint x="265" y="810" as="targetPoint" />
          </mxGeometry>
        </mxCell>
        <mxCell id="oKqIJiOsQRa1msyX4qbT-43" value="미션달성 X" style="edgeStyle=elbowEdgeStyle;html=1;elbow=vertical;verticalAlign=bottom;endArrow=open;rounded=0;labelBackgroundColor=none;endSize=12;entryX=0.75;entryY=0;entryDx=0;entryDy=0;" edge="1" source="oKqIJiOsQRa1msyX4qbT-41" parent="oKqIJiOsQRa1msyX4qbT-1" target="oKqIJiOsQRa1msyX4qbT-48">
          <mxGeometry x="0.5122" y="30" relative="1" as="geometry">
            <mxPoint x="365" y="870" as="targetPoint" />
            <Array as="points">
              <mxPoint x="350" y="870" />
            </Array>
            <mxPoint as="offset" />
          </mxGeometry>
        </mxCell>
        <mxCell id="oKqIJiOsQRa1msyX4qbT-44" value="미션달성 O" style="edgeStyle=elbowEdgeStyle;html=1;elbow=vertical;verticalAlign=bottom;endArrow=open;rounded=0;labelBackgroundColor=none;endSize=12;entryX=0.317;entryY=-0.1;entryDx=0;entryDy=0;entryPerimeter=0;" edge="1" source="oKqIJiOsQRa1msyX4qbT-41" parent="oKqIJiOsQRa1msyX4qbT-1" target="oKqIJiOsQRa1msyX4qbT-55">
          <mxGeometry x="0.559" y="-27" relative="1" as="geometry">
            <mxPoint x="165" y="870" as="targetPoint" />
            <Array as="points">
              <mxPoint x="210" y="870" />
              <mxPoint x="170" y="920" />
            </Array>
            <mxPoint as="offset" />
          </mxGeometry>
        </mxCell>
        <mxCell id="oKqIJiOsQRa1msyX4qbT-45" value="오늘의 미션 정보 캐시를 갱신한다?" style="html=1;align=center;verticalAlign=top;rounded=1;absoluteArcSize=1;arcSize=10;dashed=0;" vertex="1" parent="oKqIJiOsQRa1msyX4qbT-1">
          <mxGeometry x="20" y="1030" width="180" height="40" as="geometry" />
        </mxCell>
        <mxCell id="oKqIJiOsQRa1msyX4qbT-48" value="처리 X" style="html=1;align=center;verticalAlign=top;rounded=1;absoluteArcSize=1;arcSize=10;dashed=0;" vertex="1" parent="oKqIJiOsQRa1msyX4qbT-1">
          <mxGeometry x="295" y="960" width="140" height="40" as="geometry" />
        </mxCell>
        <mxCell id="oKqIJiOsQRa1msyX4qbT-51" value="&lt;font style=&quot;font-size: 10px&quot;&gt;90003:&amp;nbsp;&lt;span style=&quot;color: rgb(23 , 43 , 77) ; font-family: , &amp;#34;blinkmacsystemfont&amp;#34; , &amp;#34;segoe ui&amp;#34; , &amp;#34;roboto&amp;#34; , &amp;#34;noto sans&amp;#34; , &amp;#34;ubuntu&amp;#34; , &amp;#34;droid sans&amp;#34; , &amp;#34;helvetica neue&amp;#34; , sans-serif ; letter-spacing: -0.07999999821186066px ; background-color: rgb(255 , 255 , 255)&quot;&gt;오늘 수행할 퀘스트 액션 X&lt;br&gt;90004: 퀘스트 수행 유저 X, 국가가 한국이 아님 X&amp;nbsp;&lt;br&gt;&lt;/span&gt;&lt;/font&gt;" style="shape=note2;boundedLbl=1;whiteSpace=wrap;html=1;size=25;verticalAlign=top;align=left;spacingLeft=5;" vertex="1" parent="oKqIJiOsQRa1msyX4qbT-1">
          <mxGeometry y="770" width="160" height="80" as="geometry" />
        </mxCell>
        <mxCell id="oKqIJiOsQRa1msyX4qbT-52" value="status code: 403 error code" style="resizeWidth=1;part=1;strokeColor=none;fillColor=none;align=left;spacingLeft=5;" vertex="1" parent="oKqIJiOsQRa1msyX4qbT-51">
          <mxGeometry width="160" height="25" relative="1" as="geometry" />
        </mxCell>
        <mxCell id="oKqIJiOsQRa1msyX4qbT-56" value="" style="edgeStyle=orthogonalEdgeStyle;rounded=0;orthogonalLoop=1;jettySize=auto;html=1;" edge="1" parent="oKqIJiOsQRa1msyX4qbT-1" source="oKqIJiOsQRa1msyX4qbT-55" target="oKqIJiOsQRa1msyX4qbT-45">
          <mxGeometry relative="1" as="geometry" />
        </mxCell>
        <mxCell id="oKqIJiOsQRa1msyX4qbT-55" value="오늘의 미션 정보 캐시를 삭제한다" style="html=1;align=center;verticalAlign=top;rounded=1;absoluteArcSize=1;arcSize=10;dashed=0;" vertex="1" parent="oKqIJiOsQRa1msyX4qbT-1">
          <mxGeometry x="20" y="960" width="180" height="40" as="geometry" />
        </mxCell>
      </root>
    </mxGraphModel>
  </diagram>
</mxfile>
